HIERARCHY
ROOT Hips
{
    OFFSET 0.000000 0.000000 0.000000
    CHANNELS 6 Xposition Yposition Zposition Zrotation Xrotation Yrotation
    JOINT Spine
    {
        OFFSET -0.000000 6.993131 0.000000
        CHANNELS 3 Zrotation Xrotation Yrotation
        JOINT Spine1
        {
            OFFSET -0.000000 20.649729 0.000000
            CHANNELS 3 Zrotation Xrotation Yrotation
            JOINT Neck
            {
                OFFSET -0.000000 20.564924 1.869539
                CHANNELS 3 Zrotation Xrotation Yrotation
                JOINT Head
                {
                    OFFSET -0.000000 11.939490 -1.705642
                    CHANNELS 3 Zrotation Xrotation Yrotation
                    End Site
                    {
                        OFFSET -0.000000 21.320518 0.000000
                    }
                }
            }
            JOINT LeftShoulder
            {
                OFFSET 3.446977 19.850397 -0.038759
                CHANNELS 3 Zrotation Xrotation Yrotation
                JOINT LeftArm
                {
                    OFFSET 7.083611 0.000000 0.000000
                    CHANNELS 3 Zrotation Xrotation Yrotation
                    JOINT LeftForeArm
                    {
                        OFFSET 32.044487 0.000000 0.000000
                        CHANNELS 3 Zrotation Xrotation Yrotation
                        JOINT LeftHand
                        {
                            OFFSET 22.068741 0.000000 0.000000
                            CHANNELS 3 Zrotation Xrotation Yrotation
                            End Site
                            {
                                OFFSET 12.792312 0.000000 0.000000
                            }
                        }
                    }
                }
            }
            JOINT RightShoulder
            {
                OFFSET -3.365844 19.850397 -0.038759
                CHANNELS 3 Zrotation Xrotation Yrotation
                JOINT RightArm
                {
                    OFFSET -7.083611 0.000000 0.000000
                    CHANNELS 3 Zrotation Xrotation Yrotation
                    JOINT RightForeArm
                    {
                        OFFSET -32.044487 0.000000 0.000000
                        CHANNELS 3 Zrotation Xrotation Yrotation
                        JOINT RightHand
                        {
                            OFFSET -22.068741 0.000000 0.000000
                            CHANNELS 3 Zrotation Xrotation Yrotation
                            End Site
                            {
                                OFFSET -12.792312 0.000000 0.000000
                            }
                        }
                    }
                }
            }
        }
    }
    JOINT LeftUpLeg
    {
        OFFSET 8.528208 0.000000 0.000000
        CHANNELS 3 Zrotation Xrotation Yrotation
        JOINT LeftLeg
        {
            OFFSET -0.000000 -31.874865 0.000000
            CHANNELS 3 Zrotation Xrotation Yrotation
            JOINT LeftFoot
            {
                OFFSET -0.000000 -38.221939 0.000000
                CHANNELS 3 Zrotation Xrotation Yrotation
                JOINT LeftToeBase
                {
                    OFFSET -0.000000 -5.543335 12.792312
                    CHANNELS 3 Zrotation Xrotation Yrotation
                    End Site
                    {
                        OFFSET -0.000000 0.000000 3.411283
                    }
                }
            }
        }
    }
    JOINT RightUpLeg
    {
        OFFSET -8.528208 0.000000 0.000000
        CHANNELS 3 Zrotation Xrotation Yrotation
        JOINT RightLeg
        {
            OFFSET -0.000000 -31.874865 0.000000
            CHANNELS 3 Zrotation Xrotation Yrotation
            JOINT RightFoot
            {
                OFFSET -0.000000 -38.221939 0.000000
                CHANNELS 3 Zrotation Xrotation Yrotation
                JOINT RightToeBase
                {
                    OFFSET -0.000000 -5.543335 12.792312
                    CHANNELS 3 Zrotation Xrotation Yrotation
                    End Site
                    {
                        OFFSET -0.000000 0.000000 3.411283
                    }
                }
            }
        }
    }
}
MOTION
Frames:    9
Frame Time:    0.008333
28.423613    76.277870    31.583458    -2.488753    -0.264281    93.922806    -5.230143    -7.799570    2.397116    2.757400    5.809734    2.613968    8.154400    13.025649    8.140829    -10.774747    -1.322160    6.573048    23.567026    -3.351269    -2.109840    -23.581644    1.380650    -12.421542    9.156779    3.769702    -4.159854    6.997053    3.698332    -6.613690    -15.269477    -0.403570    -4.778791    11.921784    4.326587    6.791291    -10.893802    1.969283    7.194468    -2.966393    2.582935    2.810947    -2.245676    -4.710311    1.681257    3.709737    14.965481    0.289696    -0.963334    -9.835387    -3.241657    0.000000    0.000000    0.000000    -9.362889    0.440524    -1.625443    8.992909    8.118171    2.973697    1.323062    -5.567941    -9.037695    0.000000    0.000000    0.000000    
28.437578    76.275955    31.555710    -2.511276    -0.228179    93.926262    -5.237829    -7.825288    2.398150    2.744391    5.779229    2.618109    8.135587    13.029534    8.134377    -10.772510    -1.196129    6.579176    23.508636    -3.341883    -2.158345    -23.560234    1.346017    -12.398352    9.134544    3.791103    -4.084164    7.063245    3.711897    -6.567785    -15.288055    -0.381189    -4.760015    11.917484    4.292077    6.797916    -10.892454    2.171134    7.128174    -2.843687    2.780145    2.856598    -2.319035    -4.691351    1.628790    3.718419    14.912319    0.339361    -0.958812    -9.805504    -3.239686    0.000000    0.000000    0.000000    -9.438988    0.426517    -1.637008    9.023719    8.144057    3.047439    1.170822    -5.511050    -9.116356    0.000000    0.000000    0.000000    
28.447495    76.276146    31.551876    -2.517707    -0.240178    93.923859    -5.204312    -7.828322    2.394098    2.698983    5.749127    2.614871    8.151498    12.952913    8.129993    -10.734365    -0.978751    6.594157    23.531506    -3.311865    -2.131752    -23.564116    1.343479    -12.430909    9.130817    3.799470    -4.038965    7.033706    3.717919    -6.572465    -15.251734    -0.396431    -4.714506    11.899563    4.321222    6.771593    -10.888577    2.225994    7.096939    -2.816714    2.831849    2.881030    -2.297158    -4.675877    1.632835    3.693682    14.885855    0.352308    -0.943057    -9.826252    -3.240750    0.000000    0.000000    0.000000    -9.429406    0.428534    -1.605614    9.031909    8.135603    2.991125    1.308223    -5.598514    -9.101773    0.000000    0.000000    0.000000    
28.451920    76.278854    31.547117    -2.535131    -0.254480    93.903061    -5.218524    -7.849801    2.414265    2.757800    5.732169    2.634467    8.143110    12.964386    8.117785    -10.752292    -0.944128    6.583030    23.487526    -3.332097    -2.181567    -23.564631    1.301183    -12.414478    9.121015    3.835156    -4.006294    6.998666    3.750427    -6.609229    -15.270141    -0.391512    -4.741749    11.885592    4.315612    6.780616    -10.895051    2.286914    7.069225    -2.867389    2.887882    2.934419    -2.286604    -4.685178    1.675113    3.704296    14.875987    0.350246    -0.947544    -9.823976    -3.292903    0.000000    0.000000    0.000000    -9.416425    0.401953    -1.537282    9.035616    8.134237    2.966985    1.165545    -5.483155    -9.127584    0.000000    0.000000    0.000000    
28.466078    76.279160    31.541180    -2.538986    -0.241037    93.913589    -5.239466    -7.854153    2.411318    2.767110    5.695892    2.633581    8.183805    13.019453    8.134119    -10.822012    -0.957832    6.591249    23.468084    -3.310693    -2.213700    -23.552259    1.283328    -12.407015    9.107784    3.856346    -3.991822    6.997128    3.768060    -6.642460    -15.261391    -0.378891    -4.720804    11.877539    4.345502    6.756958    -10.881983    2.273253    7.036885    -2.966269    2.868351    2.913130    -2.304503    -4.665522    1.651320    3.697905    14.857229    0.358091    -0.963302    -9.812459    -3.275499    0.000000    0.000000    0.000000    -9.433064    0.419992    -1.550796    9.032410    8.128081    2.995806    1.171485    -5.500035    -9.152518    0.000000    0.000000    0.000000    
28.476820    76.279922    31.535137    -2.543209    -0.239805    93.919212    -5.257373    -7.867746    2.408205    2.798289    5.684715    2.631041    8.175635    13.026978    8.132520    -10.817998    -0.913744    6.595098    23.444897    -3.316003    -2.223924    -23.560200    1.244896    -12.405229    9.109047    3.902983    -3.983153    6.933304    3.815198    -6.684842    -15.258576    -0.383920    -4.720200    11.864254    4.358634    6.751502    -10.840611    2.210105    7.014624    -3.201563    2.797506    2.808189    -2.310137    -4.658013    1.663217    3.699774    14.849633    0.373011    -0.959404    -9.805928    -3.299773    0.000000    0.000000    0.000000    -9.440327    0.422270    -1.562885    9.037119    8.138169    3.020716    1.152198    -5.508423    -9.178229    0.000000    0.000000    0.000000    
28.482038    76.280952    31.528967    -2.562759    -0.242934    93.928040    -5.244363    -7.887784    2.403609    2.778201    5.670577    2.627820    8.200464    13.016995    8.138585    -10.829621    -0.859788    6.603173    23.460751    -3.312176    -2.234602    -23.599867    1.268600    -12.356446    9.205305    3.876154    -4.067797    6.849985    3.804739    -6.662772    -15.247311    -0.379116    -4.710328    11.866485    4.332503    6.736816    -10.858139    2.185647    6.990739    -3.111903    2.772306    2.872692    -2.314709    -4.675606    1.661702    3.704976    14.851339    0.361786    -0.958995    -9.803546    -3.295550    0.000000    0.000000    0.000000    -9.445013    0.402269    -1.554062    9.049688    8.157526    3.018437    1.290204    -5.606836    -9.212286    0.000000    0.000000    0.000000    
28.491978    76.286873    31.539696    -2.565809    -0.295285    93.908485    -5.243030    -7.908582    2.415524    2.858366    5.667994    2.636704    8.222113    13.022832    8.110246    -10.910731    -0.812790    6.565611    23.426105    -3.333560    -2.236744    -23.606548    1.232445    -12.359960    9.199355    3.867917    -4.063517    6.904100    3.790555    -6.699818    -15.271756    -0.359335    -4.722603    11.877065    4.270798    6.741173    -10.819500    2.096602    6.978167    -3.428040    2.675813    2.738593    -2.230603    -4.679276    1.726780    3.680264    14.858788    0.242303    -0.942103    -9.816830    -3.234249    0.000000    0.000000    0.000000    -9.366242    0.394299    -1.508482    9.020645    8.147324    2.993201    1.201503    -5.467395    -9.219507    0.000000    0.000000    0.000000    
28.504610    76.285828    31.530710    -2.571528    -0.277424    93.937469    -5.272776    -7.926216    2.408127    2.876467    5.666681    2.631317    8.226036    13.020932    8.099774    -10.906568    -0.786089    6.557537    23.440096    -3.344314    -2.249027    -23.604223    1.176844    -12.380000    9.105345    3.847512    -4.033303    7.018865    3.757197    -6.707389    -15.287818    -0.373002    -4.730147    11.888968    4.279111    6.715843    -10.841674    2.055495    6.960073    -3.285507    2.636896    2.769502    -2.256716    -4.669745    1.699600    3.674961    14.845838    0.291844    -0.946718    -9.806947    -3.275182    0.000000    0.000000    0.000000    -9.394423    0.420748    -1.545104    9.026959    8.124993    2.978478    1.209915    -5.466945    -9.190813    0.000000    0.000000    0.000000    
